# xmcd
# 
# Track frame offsets:
#     150
#     31070
#     66862
#     92397
#     127240
#     159417
#     214002
#     238967
# 
# Disc length: 3565
# 
# Revision: 2
# Processed by: cddbd v1.5.2PL0 Copyright (c) Steve Scherf et al.
# Submitted via: BonkEnc v1.0.8
# 
DISCID=680deb08
DTITLE=Linhart Peter  - Blue Nights
DYEAR=1994
DGENRE=Fusion
TTITLE0=In The Seventies
TTITLE1=Samba Di Songo
TTITLE2=Pepper-Mintz
TTITLE3=Count On Me
TTITLE4=Hip Cat Blues
TTITLE5=Blue Nights
TTITLE6=Feeling Happy (When You Are Around)
TTITLE7=Jazzica
EXTD=YEAR: 1994
EXTT0=
EXTT1=
EXTT2=
EXTT3=
EXTT4=
EXTT5=
EXTT6=
EXTT7=
PLAYORDER=
